<mxfile host="drawio-plugin" modified="2023-06-20T13:55:35.952Z" agent="5.0 (Windows NT 6.2; Win64; x64) AppleWebKit/537.36 (KHTML, like Gecko) Chrome/104.0.5112.102 Safari/537.36" etag="UO_ymfH7dTLAFvL4UVjI" version="20.5.3" type="embed" pages="4"><diagram id="MqoqiZltFH-9CqoHA8_M" name="EX01"><mxGraphModel dx="906" dy="376" grid="1" gridSize="10" guides="1" tooltips="1" connect="1" arrows="1" fold="1" page="1" pageScale="1" pageWidth="1169" pageHeight="827" math="0" shadow="0"><root><mxCell id="0"/><mxCell id="1" parent="0"/><mxCell id="E1KuoNZ9oywvvR_GTTNH-1" value="Funcionário" style="swimlane;fontStyle=1;align=center;verticalAlign=top;childLayout=stackLayout;horizontal=1;startSize=26;horizontalStack=0;resizeParent=1;resizeParentMax=0;resizeLast=0;collapsible=1;marginBottom=0;whiteSpace=wrap;html=1;" parent="1" vertex="1"><mxGeometry x="445" y="150" width="280" height="86" as="geometry"/></mxCell><mxCell id="E1KuoNZ9oywvvR_GTTNH-2" value="- salario : double" style="text;strokeColor=none;fillColor=none;align=left;verticalAlign=top;spacingLeft=4;spacingRight=4;overflow=hidden;rotatable=0;points=[[0,0.5],[1,0.5]];portConstraint=eastwest;whiteSpace=wrap;html=1;" parent="E1KuoNZ9oywvvR_GTTNH-1" vertex="1"><mxGeometry y="26" width="280" height="26" as="geometry"/></mxCell><mxCell id="E1KuoNZ9oywvvR_GTTNH-3" value="" style="line;strokeWidth=1;fillColor=none;align=left;verticalAlign=middle;spacingTop=-1;spacingLeft=3;spacingRight=3;rotatable=0;labelPosition=right;points=[];portConstraint=eastwest;strokeColor=inherit;" parent="E1KuoNZ9oywvvR_GTTNH-1" vertex="1"><mxGeometry y="52" width="280" height="8" as="geometry"/></mxCell><mxCell id="E1KuoNZ9oywvvR_GTTNH-4" value="+ calculaSalario(horas: double, valorHora: double)" style="text;strokeColor=none;fillColor=none;align=left;verticalAlign=top;spacingLeft=4;spacingRight=4;overflow=hidden;rotatable=0;points=[[0,0.5],[1,0.5]];portConstraint=eastwest;whiteSpace=wrap;html=1;" parent="E1KuoNZ9oywvvR_GTTNH-1" vertex="1"><mxGeometry y="60" width="280" height="26" as="geometry"/></mxCell><mxCell id="E1KuoNZ9oywvvR_GTTNH-5" value="Supervisão" style="swimlane;fontStyle=1;align=center;verticalAlign=top;childLayout=stackLayout;horizontal=1;startSize=26;horizontalStack=0;resizeParent=1;resizeParentMax=0;resizeLast=0;collapsible=1;marginBottom=0;whiteSpace=wrap;html=1;" parent="1" vertex="1"><mxGeometry x="245" y="350" width="280" height="86" as="geometry"/></mxCell><mxCell id="E1KuoNZ9oywvvR_GTTNH-6" value="- equipe: int" style="text;strokeColor=none;fillColor=none;align=left;verticalAlign=top;spacingLeft=4;spacingRight=4;overflow=hidden;rotatable=0;points=[[0,0.5],[1,0.5]];portConstraint=eastwest;whiteSpace=wrap;html=1;" parent="E1KuoNZ9oywvvR_GTTNH-5" vertex="1"><mxGeometry y="26" width="280" height="26" as="geometry"/></mxCell><mxCell id="E1KuoNZ9oywvvR_GTTNH-7" value="" style="line;strokeWidth=1;fillColor=none;align=left;verticalAlign=middle;spacingTop=-1;spacingLeft=3;spacingRight=3;rotatable=0;labelPosition=right;points=[];portConstraint=eastwest;strokeColor=inherit;" parent="E1KuoNZ9oywvvR_GTTNH-5" vertex="1"><mxGeometry y="52" width="280" height="8" as="geometry"/></mxCell><mxCell id="E1KuoNZ9oywvvR_GTTNH-8" value="+ aprovarFerias(boolean)" style="text;strokeColor=none;fillColor=none;align=left;verticalAlign=top;spacingLeft=4;spacingRight=4;overflow=hidden;rotatable=0;points=[[0,0.5],[1,0.5]];portConstraint=eastwest;whiteSpace=wrap;html=1;" parent="E1KuoNZ9oywvvR_GTTNH-5" vertex="1"><mxGeometry y="60" width="280" height="26" as="geometry"/></mxCell><mxCell id="E1KuoNZ9oywvvR_GTTNH-9" value="Técnicos" style="swimlane;fontStyle=1;align=center;verticalAlign=top;childLayout=stackLayout;horizontal=1;startSize=26;horizontalStack=0;resizeParent=1;resizeParentMax=0;resizeLast=0;collapsible=1;marginBottom=0;whiteSpace=wrap;html=1;" parent="1" vertex="1"><mxGeometry x="645" y="350" width="280" height="86" as="geometry"/></mxCell><mxCell id="E1KuoNZ9oywvvR_GTTNH-10" value="- hardSkill : string" style="text;strokeColor=none;fillColor=none;align=left;verticalAlign=top;spacingLeft=4;spacingRight=4;overflow=hidden;rotatable=0;points=[[0,0.5],[1,0.5]];portConstraint=eastwest;whiteSpace=wrap;html=1;" parent="E1KuoNZ9oywvvR_GTTNH-9" vertex="1"><mxGeometry y="26" width="280" height="26" as="geometry"/></mxCell><mxCell id="E1KuoNZ9oywvvR_GTTNH-11" value="" style="line;strokeWidth=1;fillColor=none;align=left;verticalAlign=middle;spacingTop=-1;spacingLeft=3;spacingRight=3;rotatable=0;labelPosition=right;points=[];portConstraint=eastwest;strokeColor=inherit;" parent="E1KuoNZ9oywvvR_GTTNH-9" vertex="1"><mxGeometry y="52" width="280" height="8" as="geometry"/></mxCell><mxCell id="E1KuoNZ9oywvvR_GTTNH-12" value="+ planejarOrdemServico(string)" style="text;strokeColor=none;fillColor=none;align=left;verticalAlign=top;spacingLeft=4;spacingRight=4;overflow=hidden;rotatable=0;points=[[0,0.5],[1,0.5]];portConstraint=eastwest;whiteSpace=wrap;html=1;" parent="E1KuoNZ9oywvvR_GTTNH-9" vertex="1"><mxGeometry y="60" width="280" height="26" as="geometry"/></mxCell><mxCell id="E1KuoNZ9oywvvR_GTTNH-13" value="Assistentes" style="swimlane;fontStyle=1;align=center;verticalAlign=top;childLayout=stackLayout;horizontal=1;startSize=26;horizontalStack=0;resizeParent=1;resizeParentMax=0;resizeLast=0;collapsible=1;marginBottom=0;whiteSpace=wrap;html=1;" parent="1" vertex="1"><mxGeometry x="445" y="510" width="280" height="86" as="geometry"/></mxCell><mxCell id="E1KuoNZ9oywvvR_GTTNH-14" value="- verificarManutencaoPreventiva: string" style="text;strokeColor=none;fillColor=none;align=left;verticalAlign=top;spacingLeft=4;spacingRight=4;overflow=hidden;rotatable=0;points=[[0,0.5],[1,0.5]];portConstraint=eastwest;whiteSpace=wrap;html=1;" parent="E1KuoNZ9oywvvR_GTTNH-13" vertex="1"><mxGeometry y="26" width="280" height="26" as="geometry"/></mxCell><mxCell id="E1KuoNZ9oywvvR_GTTNH-15" value="" style="line;strokeWidth=1;fillColor=none;align=left;verticalAlign=middle;spacingTop=-1;spacingLeft=3;spacingRight=3;rotatable=0;labelPosition=right;points=[];portConstraint=eastwest;strokeColor=inherit;" parent="E1KuoNZ9oywvvR_GTTNH-13" vertex="1"><mxGeometry y="52" width="280" height="8" as="geometry"/></mxCell><mxCell id="E1KuoNZ9oywvvR_GTTNH-16" value="+ lancarOrdemSistema(double)" style="text;strokeColor=none;fillColor=none;align=left;verticalAlign=top;spacingLeft=4;spacingRight=4;overflow=hidden;rotatable=0;points=[[0,0.5],[1,0.5]];portConstraint=eastwest;whiteSpace=wrap;html=1;" parent="E1KuoNZ9oywvvR_GTTNH-13" vertex="1"><mxGeometry y="60" width="280" height="26" as="geometry"/></mxCell><mxCell id="E1KuoNZ9oywvvR_GTTNH-25" value="" style="endArrow=none;html=1;edgeStyle=orthogonalEdgeStyle;rounded=0;entryX=0.5;entryY=0;entryDx=0;entryDy=0;" parent="1" source="E1KuoNZ9oywvvR_GTTNH-4" target="E1KuoNZ9oywvvR_GTTNH-5" edge="1"><mxGeometry relative="1" as="geometry"><mxPoint x="506" y="310" as="sourcePoint"/><mxPoint x="665" y="310" as="targetPoint"/><Array as="points"><mxPoint x="585" y="290"/><mxPoint x="385" y="290"/></Array></mxGeometry></mxCell><mxCell id="E1KuoNZ9oywvvR_GTTNH-26" value="parent" style="edgeLabel;resizable=0;html=1;align=left;verticalAlign=bottom;" parent="E1KuoNZ9oywvvR_GTTNH-25" connectable="0" vertex="1"><mxGeometry x="-1" relative="1" as="geometry"><mxPoint x="-20" y="34" as="offset"/></mxGeometry></mxCell><mxCell id="E1KuoNZ9oywvvR_GTTNH-27" value="child" style="edgeLabel;resizable=0;html=1;align=right;verticalAlign=bottom;" parent="E1KuoNZ9oywvvR_GTTNH-25" connectable="0" vertex="1"><mxGeometry x="1" relative="1" as="geometry"><mxPoint x="10" y="-20" as="offset"/></mxGeometry></mxCell><mxCell id="E1KuoNZ9oywvvR_GTTNH-31" value="" style="endArrow=none;html=1;edgeStyle=orthogonalEdgeStyle;rounded=0;entryX=0.5;entryY=0;entryDx=0;entryDy=0;" parent="1" target="E1KuoNZ9oywvvR_GTTNH-9" edge="1"><mxGeometry relative="1" as="geometry"><mxPoint x="585" y="290" as="sourcePoint"/><mxPoint x="745" y="290" as="targetPoint"/></mxGeometry></mxCell><mxCell id="E1KuoNZ9oywvvR_GTTNH-33" value="child" style="edgeLabel;resizable=0;html=1;align=right;verticalAlign=bottom;" parent="E1KuoNZ9oywvvR_GTTNH-31" connectable="0" vertex="1"><mxGeometry x="1" relative="1" as="geometry"><mxPoint x="10" y="-20" as="offset"/></mxGeometry></mxCell><mxCell id="E1KuoNZ9oywvvR_GTTNH-34" value="" style="endArrow=none;html=1;edgeStyle=orthogonalEdgeStyle;rounded=0;" parent="1" edge="1"><mxGeometry relative="1" as="geometry"><mxPoint x="585" y="290" as="sourcePoint"/><mxPoint x="585" y="510" as="targetPoint"/></mxGeometry></mxCell><mxCell id="E1KuoNZ9oywvvR_GTTNH-35" value="parent" style="edgeLabel;resizable=0;html=1;align=left;verticalAlign=bottom;" parent="E1KuoNZ9oywvvR_GTTNH-34" connectable="0" vertex="1"><mxGeometry x="-1" relative="1" as="geometry"><mxPoint x="-20" y="70" as="offset"/></mxGeometry></mxCell><mxCell id="E1KuoNZ9oywvvR_GTTNH-36" value="child" style="edgeLabel;resizable=0;html=1;align=right;verticalAlign=bottom;" parent="E1KuoNZ9oywvvR_GTTNH-34" connectable="0" vertex="1"><mxGeometry x="1" relative="1" as="geometry"><mxPoint x="10" y="-10" as="offset"/></mxGeometry></mxCell><mxCell id="E1KuoNZ9oywvvR_GTTNH-40" value="&lt;h1 style=&quot;text-align: justify;&quot;&gt;Exercício 1&lt;/h1&gt;&lt;p style=&quot;text-align: justify;&quot;&gt;Crie um diagrama de classes partindo da classe Funcionário.&lt;/p&gt;&lt;p style=&quot;text-align: justify;&quot;&gt;&amp;nbsp;Crie ao menos 3&amp;nbsp;&lt;span style=&quot;background-color: initial;&quot;&gt;cargos específicos utilizando o conceito de herança e polimorfismo. O seu diagrama&amp;nbsp;&lt;/span&gt;&lt;span style=&quot;background-color: initial;&quot;&gt;deve seguir as seguintes regras:&lt;/span&gt;&lt;/p&gt;&lt;p style=&quot;text-align: justify;&quot;&gt;&lt;b&gt;A&lt;/b&gt;. A classe Funcionário, deve ter um atributo salário, que deve ser protegido.&lt;/p&gt;&lt;p style=&quot;text-align: justify;&quot;&gt;&lt;b&gt;B&lt;/b&gt;. As classes que herdam de Funcionário devem ter o método&amp;nbsp;&lt;span style=&quot;background-color: initial;&quot;&gt;“calcularSalario” que receba as horas trabalhadas e o valor cobrado por hora e&amp;nbsp;&lt;/span&gt;&lt;span style=&quot;background-color: initial;&quot;&gt;retorne o seu salário se baseando nos 2 parâmetros.&lt;/span&gt;&lt;/p&gt;&lt;p style=&quot;text-align: justify;&quot;&gt;&lt;b&gt;C&lt;/b&gt;. As classes devem ter ao menos 1 método e 1 atributo que a diferencie das&amp;nbsp;&lt;span style=&quot;background-color: initial;&quot;&gt;outras classes.&lt;/span&gt;&lt;/p&gt;" style="text;html=1;strokeColor=none;fillColor=none;spacing=5;spacingTop=-20;whiteSpace=wrap;overflow=hidden;rounded=0;align=left;" parent="1" vertex="1"><mxGeometry x="30" y="40" width="190" height="400" as="geometry"/></mxCell><mxCell id="2" value="" style="edgeStyle=none;orthogonalLoop=1;jettySize=auto;html=1;rounded=0;" edge="1" parent="1"><mxGeometry width="80" relative="1" as="geometry"><mxPoint x="390" y="270" as="sourcePoint"/><mxPoint x="470" y="270" as="targetPoint"/><Array as="points"/></mxGeometry></mxCell></root></mxGraphModel></diagram><diagram name="EX02" id="scZbdt6RR6FGZLJl4SqG"><mxGraphModel dx="698" dy="376" grid="1" gridSize="10" guides="1" tooltips="1" connect="1" arrows="1" fold="1" page="1" pageScale="1" pageWidth="1169" pageHeight="827" math="0" shadow="0"><root><mxCell id="STDgUkgOGrQjD_Hvpn40-0"/><mxCell id="STDgUkgOGrQjD_Hvpn40-1" parent="STDgUkgOGrQjD_Hvpn40-0"/><mxCell id="STDgUkgOGrQjD_Hvpn40-26" value="&lt;h1&gt;Exercício 2&lt;/h1&gt;&lt;font style=&quot;font-size: 14px;&quot;&gt;&lt;div style=&quot;text-align: justify;&quot;&gt;&lt;span style=&quot;background-color: initial;&quot;&gt;Crie um diagrama de classes mostrando a relação entre um cachorro e seu dono.&lt;/span&gt;&lt;/div&gt;&lt;/font&gt;&lt;p&gt;&amp;nbsp;&lt;br&gt;&lt;/p&gt;" style="text;html=1;strokeColor=none;fillColor=none;spacing=5;spacingTop=-20;whiteSpace=wrap;overflow=hidden;rounded=0;align=left;" parent="STDgUkgOGrQjD_Hvpn40-1" vertex="1"><mxGeometry x="30" y="40" width="190" height="120" as="geometry"/></mxCell><mxCell id="Kv7BwT9LdwlTMKaUCUeH-0" value="Cachorro" style="swimlane;fontStyle=1;align=center;verticalAlign=top;childLayout=stackLayout;horizontal=1;startSize=26;horizontalStack=0;resizeParent=1;resizeParentMax=0;resizeLast=0;collapsible=1;marginBottom=0;whiteSpace=wrap;html=1;fillColor=default;swimlaneLine=1;rounded=0;" parent="STDgUkgOGrQjD_Hvpn40-1" vertex="1"><mxGeometry x="280" y="214" width="280" height="400" as="geometry"><mxRectangle x="180" y="400" width="90" height="30" as="alternateBounds"/></mxGeometry></mxCell><mxCell id="9GTkZkAG6dhkHzIEBBAg-0" value="Atributos privados - características da classe" style="text;html=1;strokeColor=none;fillColor=none;align=center;verticalAlign=middle;whiteSpace=wrap;rounded=0;" parent="Kv7BwT9LdwlTMKaUCUeH-0" vertex="1"><mxGeometry y="26" width="280" height="30" as="geometry"/></mxCell><mxCell id="Kv7BwT9LdwlTMKaUCUeH-1" value="&lt;p style=&quot;line-height: 120%;&quot;&gt;- nome: string&lt;/p&gt;&lt;p style=&quot;line-height: 120%;&quot;&gt;- idade : int&lt;/p&gt;&lt;p style=&quot;line-height: 120%;&quot;&gt;- raça:string&lt;/p&gt;&lt;p style=&quot;line-height: 120%;&quot;&gt;- cor: string&lt;br&gt;&lt;/p&gt;" style="text;strokeColor=none;fillColor=none;align=left;verticalAlign=top;spacingLeft=4;spacingRight=4;overflow=hidden;rotatable=0;points=[[0,0.5],[1,0.5]];portConstraint=eastwest;whiteSpace=wrap;html=1;spacing=4;spacingTop=0;spacingBottom=0;" parent="Kv7BwT9LdwlTMKaUCUeH-0" vertex="1"><mxGeometry y="56" width="280" height="134" as="geometry"/></mxCell><mxCell id="Kv7BwT9LdwlTMKaUCUeH-2" value="" style="line;strokeWidth=1;fillColor=none;align=left;verticalAlign=middle;spacingTop=-1;spacingLeft=3;spacingRight=3;rotatable=0;labelPosition=right;points=[];portConstraint=eastwest;strokeColor=inherit;" parent="Kv7BwT9LdwlTMKaUCUeH-0" vertex="1"><mxGeometry y="190" width="280" height="8" as="geometry"/></mxCell><mxCell id="9GTkZkAG6dhkHzIEBBAg-1" value="Métodos públicos - ações da classe" style="text;html=1;strokeColor=none;fillColor=none;align=center;verticalAlign=middle;whiteSpace=wrap;rounded=0;" parent="Kv7BwT9LdwlTMKaUCUeH-0" vertex="1"><mxGeometry y="198" width="280" height="30" as="geometry"/></mxCell><mxCell id="Kv7BwT9LdwlTMKaUCUeH-3" value="+ dormir (boolean)&lt;br&gt;&lt;br&gt;+ latir(Au Au) :string&lt;br&gt;&lt;br&gt;+ comer (boolean)" style="text;strokeColor=none;fillColor=none;align=left;verticalAlign=top;spacingLeft=4;spacingRight=4;overflow=hidden;rotatable=0;points=[[0,0.5],[1,0.5]];portConstraint=eastwest;whiteSpace=wrap;html=1;" parent="Kv7BwT9LdwlTMKaUCUeH-0" vertex="1"><mxGeometry y="228" width="280" height="92" as="geometry"/></mxCell><mxCell id="Kv7BwT9LdwlTMKaUCUeH-12" value="" style="line;strokeWidth=1;fillColor=none;align=left;verticalAlign=middle;spacingTop=-1;spacingLeft=3;spacingRight=3;rotatable=0;labelPosition=right;points=[];portConstraint=eastwest;strokeColor=inherit;" parent="Kv7BwT9LdwlTMKaUCUeH-0" vertex="1"><mxGeometry y="320" width="280" height="8" as="geometry"/></mxCell><mxCell id="9GTkZkAG6dhkHzIEBBAg-3" value="Atributo privado - em relação a um dono em específico" style="text;html=1;strokeColor=none;fillColor=none;align=center;verticalAlign=middle;whiteSpace=wrap;rounded=0;" parent="Kv7BwT9LdwlTMKaUCUeH-0" vertex="1"><mxGeometry y="328" width="280" height="30" as="geometry"/></mxCell><mxCell id="Kv7BwT9LdwlTMKaUCUeH-9" value="- dono (relação cachorro x dono por esse atributo)" style="text;strokeColor=none;fillColor=none;align=left;verticalAlign=top;spacingLeft=4;spacingRight=4;overflow=hidden;rotatable=0;points=[[0,0.5],[1,0.5]];portConstraint=eastwest;whiteSpace=wrap;html=1;" parent="Kv7BwT9LdwlTMKaUCUeH-0" vertex="1"><mxGeometry y="358" width="280" height="42" as="geometry"/></mxCell><mxCell id="Kv7BwT9LdwlTMKaUCUeH-5" value="&lt;b&gt;Dono&lt;/b&gt;" style="swimlane;fontStyle=0;childLayout=stackLayout;horizontal=1;startSize=26;fillColor=none;horizontalStack=0;resizeParent=1;resizeParentMax=0;resizeLast=0;collapsible=1;marginBottom=0;whiteSpace=wrap;html=1;" parent="STDgUkgOGrQjD_Hvpn40-1" vertex="1"><mxGeometry x="80" y="350" width="140" height="104" as="geometry"/></mxCell><mxCell id="Kv7BwT9LdwlTMKaUCUeH-6" value="- nome: string" style="text;strokeColor=none;fillColor=none;align=left;verticalAlign=top;spacingLeft=4;spacingRight=4;overflow=hidden;rotatable=0;points=[[0,0.5],[1,0.5]];portConstraint=eastwest;whiteSpace=wrap;html=1;" parent="Kv7BwT9LdwlTMKaUCUeH-5" vertex="1"><mxGeometry y="26" width="140" height="26" as="geometry"/></mxCell><mxCell id="Kv7BwT9LdwlTMKaUCUeH-7" value="- altura: double" style="text;strokeColor=none;fillColor=none;align=left;verticalAlign=top;spacingLeft=4;spacingRight=4;overflow=hidden;rotatable=0;points=[[0,0.5],[1,0.5]];portConstraint=eastwest;whiteSpace=wrap;html=1;" parent="Kv7BwT9LdwlTMKaUCUeH-5" vertex="1"><mxGeometry y="52" width="140" height="26" as="geometry"/></mxCell><mxCell id="Kv7BwT9LdwlTMKaUCUeH-8" value="- idade: int" style="text;strokeColor=none;fillColor=none;align=left;verticalAlign=top;spacingLeft=4;spacingRight=4;overflow=hidden;rotatable=0;points=[[0,0.5],[1,0.5]];portConstraint=eastwest;whiteSpace=wrap;html=1;" parent="Kv7BwT9LdwlTMKaUCUeH-5" vertex="1"><mxGeometry y="78" width="140" height="26" as="geometry"/></mxCell></root></mxGraphModel></diagram><diagram name="EX03" id="oF9C9X6xPgecT8plEKO4"><mxGraphModel dx="698" dy="376" grid="1" gridSize="10" guides="1" tooltips="1" connect="1" arrows="1" fold="1" page="1" pageScale="1" pageWidth="1169" pageHeight="827" math="0" shadow="0"><root><mxCell id="Co6T5hAWA19armpokdl--0"/><mxCell id="Co6T5hAWA19armpokdl--1" parent="Co6T5hAWA19armpokdl--0"/><mxCell id="Co6T5hAWA19armpokdl--2" value="Mamífero" style="swimlane;fontStyle=1;align=center;verticalAlign=top;childLayout=stackLayout;horizontal=1;startSize=26;horizontalStack=0;resizeParent=1;resizeParentMax=0;resizeLast=0;collapsible=1;marginBottom=0;whiteSpace=wrap;html=1;" parent="Co6T5hAWA19armpokdl--1" vertex="1"><mxGeometry x="477" y="150" width="215" height="86" as="geometry"/></mxCell><mxCell id="Co6T5hAWA19armpokdl--3" value="- nome: &lt;i&gt;&lt;b&gt;string&lt;/b&gt;&lt;/i&gt;" style="text;strokeColor=none;fillColor=none;align=left;verticalAlign=top;spacingLeft=4;spacingRight=4;overflow=hidden;rotatable=0;points=[[0,0.5],[1,0.5]];portConstraint=eastwest;whiteSpace=wrap;html=1;" parent="Co6T5hAWA19armpokdl--2" vertex="1"><mxGeometry y="26" width="215" height="26" as="geometry"/></mxCell><mxCell id="Co6T5hAWA19armpokdl--4" value="" style="line;strokeWidth=1;fillColor=none;align=left;verticalAlign=middle;spacingTop=-1;spacingLeft=3;spacingRight=3;rotatable=0;labelPosition=right;points=[];portConstraint=eastwest;strokeColor=inherit;" parent="Co6T5hAWA19armpokdl--2" vertex="1"><mxGeometry y="52" width="215" height="8" as="geometry"/></mxCell><mxCell id="Co6T5hAWA19armpokdl--5" value="+ emitirSomAnimal() : string" style="text;strokeColor=none;fillColor=none;align=left;verticalAlign=top;spacingLeft=4;spacingRight=4;overflow=hidden;rotatable=0;points=[[0,0.5],[1,0.5]];portConstraint=eastwest;whiteSpace=wrap;html=1;" parent="Co6T5hAWA19armpokdl--2" vertex="1"><mxGeometry y="60" width="215" height="26" as="geometry"/></mxCell><mxCell id="Co6T5hAWA19armpokdl--6" value="Gato" style="swimlane;fontStyle=1;align=center;verticalAlign=top;childLayout=stackLayout;horizontal=1;startSize=26;horizontalStack=0;resizeParent=1;resizeParentMax=0;resizeLast=0;collapsible=1;marginBottom=0;whiteSpace=wrap;html=1;" parent="Co6T5hAWA19armpokdl--1" vertex="1"><mxGeometry x="245" y="350" width="280" height="120" as="geometry"/></mxCell><mxCell id="Co6T5hAWA19armpokdl--7" value="- cor : &lt;b&gt;string&lt;/b&gt;" style="text;strokeColor=none;fillColor=none;align=left;verticalAlign=top;spacingLeft=4;spacingRight=4;overflow=hidden;rotatable=0;points=[[0,0.5],[1,0.5]];portConstraint=eastwest;whiteSpace=wrap;html=1;" parent="Co6T5hAWA19armpokdl--6" vertex="1"><mxGeometry y="26" width="280" height="26" as="geometry"/></mxCell><mxCell id="Co6T5hAWA19armpokdl--8" value="" style="line;strokeWidth=1;fillColor=none;align=left;verticalAlign=middle;spacingTop=-1;spacingLeft=3;spacingRight=3;rotatable=0;labelPosition=right;points=[];portConstraint=eastwest;strokeColor=inherit;" parent="Co6T5hAWA19armpokdl--6" vertex="1"><mxGeometry y="52" width="280" height="8" as="geometry"/></mxCell><mxCell id="Co6T5hAWA19armpokdl--9" value="+ emitirSomAnimal(&quot;Miar - Miau&quot;) : string&lt;br&gt;&lt;br&gt;+ dormir ()" style="text;strokeColor=none;fillColor=none;align=left;verticalAlign=top;spacingLeft=4;spacingRight=4;overflow=hidden;rotatable=0;points=[[0,0.5],[1,0.5]];portConstraint=eastwest;whiteSpace=wrap;html=1;" parent="Co6T5hAWA19armpokdl--6" vertex="1"><mxGeometry y="60" width="280" height="60" as="geometry"/></mxCell><mxCell id="Co6T5hAWA19armpokdl--10" value="Orangotango" style="swimlane;fontStyle=1;align=center;verticalAlign=top;childLayout=stackLayout;horizontal=1;startSize=26;horizontalStack=0;resizeParent=1;resizeParentMax=0;resizeLast=0;collapsible=1;marginBottom=0;whiteSpace=wrap;html=1;" parent="Co6T5hAWA19armpokdl--1" vertex="1"><mxGeometry x="645" y="350" width="270" height="130" as="geometry"/></mxCell><mxCell id="Co6T5hAWA19armpokdl--11" value="- comprimento: &lt;b&gt;double&lt;/b&gt;" style="text;strokeColor=none;fillColor=none;align=left;verticalAlign=top;spacingLeft=4;spacingRight=4;overflow=hidden;rotatable=0;points=[[0,0.5],[1,0.5]];portConstraint=eastwest;whiteSpace=wrap;html=1;" parent="Co6T5hAWA19armpokdl--10" vertex="1"><mxGeometry y="26" width="270" height="26" as="geometry"/></mxCell><mxCell id="Co6T5hAWA19armpokdl--12" value="" style="line;strokeWidth=1;fillColor=none;align=left;verticalAlign=middle;spacingTop=-1;spacingLeft=3;spacingRight=3;rotatable=0;labelPosition=right;points=[];portConstraint=eastwest;strokeColor=inherit;" parent="Co6T5hAWA19armpokdl--10" vertex="1"><mxGeometry y="52" width="270" height="8" as="geometry"/></mxCell><mxCell id="Co6T5hAWA19armpokdl--13" value="+ emitirSomAnimal(&quot;Guinchar - UuÁá&quot;) : string&lt;br&gt;&lt;br&gt;+ escalarÁrvores ()" style="text;strokeColor=none;fillColor=none;align=left;verticalAlign=top;spacingLeft=4;spacingRight=4;overflow=hidden;rotatable=0;points=[[0,0.5],[1,0.5]];portConstraint=eastwest;whiteSpace=wrap;html=1;" parent="Co6T5hAWA19armpokdl--10" vertex="1"><mxGeometry y="60" width="270" height="70" as="geometry"/></mxCell><mxCell id="Co6T5hAWA19armpokdl--14" value="Elefante" style="swimlane;fontStyle=1;align=center;verticalAlign=top;childLayout=stackLayout;horizontal=1;startSize=26;horizontalStack=0;resizeParent=1;resizeParentMax=0;resizeLast=0;collapsible=1;marginBottom=0;whiteSpace=wrap;html=1;" parent="Co6T5hAWA19armpokdl--1" vertex="1"><mxGeometry x="445" y="510" width="280" height="120" as="geometry"/></mxCell><mxCell id="Co6T5hAWA19armpokdl--15" value="- peso : double" style="text;strokeColor=none;fillColor=none;align=left;verticalAlign=top;spacingLeft=4;spacingRight=4;overflow=hidden;rotatable=0;points=[[0,0.5],[1,0.5]];portConstraint=eastwest;whiteSpace=wrap;html=1;" parent="Co6T5hAWA19armpokdl--14" vertex="1"><mxGeometry y="26" width="280" height="26" as="geometry"/></mxCell><mxCell id="Co6T5hAWA19armpokdl--16" value="" style="line;strokeWidth=1;fillColor=none;align=left;verticalAlign=middle;spacingTop=-1;spacingLeft=3;spacingRight=3;rotatable=0;labelPosition=right;points=[];portConstraint=eastwest;strokeColor=inherit;" parent="Co6T5hAWA19armpokdl--14" vertex="1"><mxGeometry y="52" width="280" height="8" as="geometry"/></mxCell><mxCell id="Co6T5hAWA19armpokdl--17" value="+ emitirSomAnimal(&quot;Barrir- Fuuumm!&quot;) : string&lt;br&gt;&lt;br&gt;+ balançarOrelhas()" style="text;strokeColor=none;fillColor=none;align=left;verticalAlign=top;spacingLeft=4;spacingRight=4;overflow=hidden;rotatable=0;points=[[0,0.5],[1,0.5]];portConstraint=eastwest;whiteSpace=wrap;html=1;" parent="Co6T5hAWA19armpokdl--14" vertex="1"><mxGeometry y="60" width="280" height="60" as="geometry"/></mxCell><mxCell id="Co6T5hAWA19armpokdl--18" value="" style="endArrow=none;html=1;edgeStyle=orthogonalEdgeStyle;rounded=0;entryX=0.5;entryY=0;entryDx=0;entryDy=0;" parent="Co6T5hAWA19armpokdl--1" source="Co6T5hAWA19armpokdl--5" target="Co6T5hAWA19armpokdl--6" edge="1"><mxGeometry relative="1" as="geometry"><mxPoint x="506" y="310" as="sourcePoint"/><mxPoint x="665" y="310" as="targetPoint"/><Array as="points"><mxPoint x="585" y="290"/><mxPoint x="385" y="290"/></Array></mxGeometry></mxCell><mxCell id="Co6T5hAWA19armpokdl--19" value="parent" style="edgeLabel;resizable=0;html=1;align=left;verticalAlign=bottom;" parent="Co6T5hAWA19armpokdl--18" connectable="0" vertex="1"><mxGeometry x="-1" relative="1" as="geometry"><mxPoint x="-20" y="34" as="offset"/></mxGeometry></mxCell><mxCell id="Co6T5hAWA19armpokdl--20" value="child" style="edgeLabel;resizable=0;html=1;align=right;verticalAlign=bottom;" parent="Co6T5hAWA19armpokdl--18" connectable="0" vertex="1"><mxGeometry x="1" relative="1" as="geometry"><mxPoint x="10" y="-20" as="offset"/></mxGeometry></mxCell><mxCell id="Co6T5hAWA19armpokdl--21" value="" style="endArrow=none;html=1;edgeStyle=orthogonalEdgeStyle;rounded=0;entryX=0.5;entryY=0;entryDx=0;entryDy=0;" parent="Co6T5hAWA19armpokdl--1" target="Co6T5hAWA19armpokdl--10" edge="1"><mxGeometry relative="1" as="geometry"><mxPoint x="585" y="290" as="sourcePoint"/><mxPoint x="745" y="290" as="targetPoint"/></mxGeometry></mxCell><mxCell id="Co6T5hAWA19armpokdl--22" value="child" style="edgeLabel;resizable=0;html=1;align=right;verticalAlign=bottom;" parent="Co6T5hAWA19armpokdl--21" connectable="0" vertex="1"><mxGeometry x="1" relative="1" as="geometry"><mxPoint x="10" y="-20" as="offset"/></mxGeometry></mxCell><mxCell id="Co6T5hAWA19armpokdl--23" value="" style="endArrow=none;html=1;edgeStyle=orthogonalEdgeStyle;rounded=0;" parent="Co6T5hAWA19armpokdl--1" edge="1"><mxGeometry relative="1" as="geometry"><mxPoint x="585" y="290" as="sourcePoint"/><mxPoint x="585" y="510" as="targetPoint"/></mxGeometry></mxCell><mxCell id="Co6T5hAWA19armpokdl--24" value="parent" style="edgeLabel;resizable=0;html=1;align=left;verticalAlign=bottom;" parent="Co6T5hAWA19armpokdl--23" connectable="0" vertex="1"><mxGeometry x="-1" relative="1" as="geometry"><mxPoint x="-20" y="70" as="offset"/></mxGeometry></mxCell><mxCell id="Co6T5hAWA19armpokdl--25" value="child" style="edgeLabel;resizable=0;html=1;align=right;verticalAlign=bottom;" parent="Co6T5hAWA19armpokdl--23" connectable="0" vertex="1"><mxGeometry x="1" relative="1" as="geometry"><mxPoint x="10" y="-10" as="offset"/></mxGeometry></mxCell><mxCell id="Co6T5hAWA19armpokdl--26" value="&lt;h1 style=&quot;text-align: justify;&quot;&gt;Exercício 3&lt;/h1&gt;&lt;p style=&quot;text-align: justify;&quot;&gt;Crie um diagrama de classes usando herança e polimorfismo, tendo como tema a&amp;nbsp;&lt;span style=&quot;background-color: initial;&quot;&gt;classe pai: Mamífero.&lt;/span&gt;&lt;/p&gt;&lt;p style=&quot;text-align: justify;&quot;&gt;A. Crie pelo menos 3 classes filhas, cada uma com pelo menos uma&amp;nbsp;&lt;span style=&quot;background-color: initial;&quot;&gt;característica específica.&lt;/span&gt;&lt;/p&gt;" style="text;html=1;strokeColor=none;fillColor=none;spacing=5;spacingTop=-20;whiteSpace=wrap;overflow=hidden;rounded=0;align=left;" parent="Co6T5hAWA19armpokdl--1" vertex="1"><mxGeometry x="30" y="40" width="250" height="170" as="geometry"/></mxCell></root></mxGraphModel></diagram><diagram name="EX05" id="f-Lw_dgbRv6y-5sjWOvJ">&#xa;    <mxGraphModel dx="1011" dy="934" grid="1" gridSize="10" guides="1" tooltips="1" connect="1" arrows="1" fold="1" page="1" pageScale="1" pageWidth="827" pageHeight="1169" math="0" shadow="0">&#xa;      <root>&#xa;        <mxCell id="mmUrm8-1lzrFlqwKut57-0"/>&#xa;        <mxCell id="mmUrm8-1lzrFlqwKut57-1" parent="mmUrm8-1lzrFlqwKut57-0"/>&#xa;        <mxCell id="mmUrm8-1lzrFlqwKut57-2" value="Impressora" style="swimlane;fontStyle=1;align=center;verticalAlign=top;childLayout=stackLayout;horizontal=1;startSize=26;horizontalStack=0;resizeParent=1;resizeParentMax=0;resizeLast=0;collapsible=1;marginBottom=0;whiteSpace=wrap;html=1;" vertex="1" parent="mmUrm8-1lzrFlqwKut57-1">&#xa;          <mxGeometry x="275" y="300" width="280" height="150" as="geometry"/>&#xa;        </mxCell>&#xa;        <mxCell id="816IRJLJWsRyu6MtDczG-8" value="Atributos" style="text;html=1;strokeColor=none;fillColor=none;align=center;verticalAlign=middle;whiteSpace=wrap;rounded=0;" vertex="1" parent="mmUrm8-1lzrFlqwKut57-2">&#xa;          <mxGeometry y="26" width="280" height="30" as="geometry"/>&#xa;        </mxCell>&#xa;        <mxCell id="mmUrm8-1lzrFlqwKut57-3" value="- filaArquivos: &amp;lt;Arquivos&amp;gt; Fila de arquivos" style="text;strokeColor=none;fillColor=none;align=left;verticalAlign=top;spacingLeft=4;spacingRight=4;overflow=hidden;rotatable=0;points=[[0,0.5],[1,0.5]];portConstraint=eastwest;whiteSpace=wrap;html=1;" vertex="1" parent="mmUrm8-1lzrFlqwKut57-2">&#xa;          <mxGeometry y="56" width="280" height="26" as="geometry"/>&#xa;        </mxCell>&#xa;        <mxCell id="mmUrm8-1lzrFlqwKut57-4" value="" style="line;strokeWidth=1;fillColor=none;align=left;verticalAlign=middle;spacingTop=-1;spacingLeft=3;spacingRight=3;rotatable=0;labelPosition=right;points=[];portConstraint=eastwest;strokeColor=inherit;" vertex="1" parent="mmUrm8-1lzrFlqwKut57-2">&#xa;          <mxGeometry y="82" width="280" height="8" as="geometry"/>&#xa;        </mxCell>&#xa;        <mxCell id="mmUrm8-1lzrFlqwKut57-5" value="+ adicionarArquivos(arquivos)&lt;br&gt;&lt;br&gt;+ imprimirFilaArquivos()" style="text;strokeColor=none;fillColor=none;align=left;verticalAlign=top;spacingLeft=4;spacingRight=4;overflow=hidden;rotatable=0;points=[[0,0.5],[1,0.5]];portConstraint=eastwest;whiteSpace=wrap;html=1;" vertex="1" parent="mmUrm8-1lzrFlqwKut57-2">&#xa;          <mxGeometry y="90" width="280" height="60" as="geometry"/>&#xa;        </mxCell>&#xa;        <mxCell id="mmUrm8-1lzrFlqwKut57-6" value="ArquivoFoto (child)" style="swimlane;fontStyle=1;align=center;verticalAlign=top;childLayout=stackLayout;horizontal=1;startSize=26;horizontalStack=0;resizeParent=1;resizeParentMax=0;resizeLast=0;collapsible=1;marginBottom=0;whiteSpace=wrap;html=1;" vertex="1" parent="mmUrm8-1lzrFlqwKut57-1">&#xa;          <mxGeometry x="79" y="790.1" width="280" height="86" as="geometry"/>&#xa;        </mxCell>&#xa;        <mxCell id="mmUrm8-1lzrFlqwKut57-7" value="- resolucaoFoto: int" style="text;strokeColor=none;fillColor=none;align=left;verticalAlign=top;spacingLeft=4;spacingRight=4;overflow=hidden;rotatable=0;points=[[0,0.5],[1,0.5]];portConstraint=eastwest;whiteSpace=wrap;html=1;" vertex="1" parent="mmUrm8-1lzrFlqwKut57-6">&#xa;          <mxGeometry y="26" width="280" height="26" as="geometry"/>&#xa;        </mxCell>&#xa;        <mxCell id="mmUrm8-1lzrFlqwKut57-8" value="" style="line;strokeWidth=1;fillColor=none;align=left;verticalAlign=middle;spacingTop=-1;spacingLeft=3;spacingRight=3;rotatable=0;labelPosition=right;points=[];portConstraint=eastwest;strokeColor=inherit;" vertex="1" parent="mmUrm8-1lzrFlqwKut57-6">&#xa;          <mxGeometry y="52" width="280" height="8" as="geometry"/>&#xa;        </mxCell>&#xa;        <mxCell id="mmUrm8-1lzrFlqwKut57-9" value="+ imprimirArquivo()" style="text;strokeColor=none;fillColor=none;align=left;verticalAlign=top;spacingLeft=4;spacingRight=4;overflow=hidden;rotatable=0;points=[[0,0.5],[1,0.5]];portConstraint=eastwest;whiteSpace=wrap;html=1;" vertex="1" parent="mmUrm8-1lzrFlqwKut57-6">&#xa;          <mxGeometry y="60" width="280" height="26" as="geometry"/>&#xa;        </mxCell>&#xa;        <mxCell id="mmUrm8-1lzrFlqwKut57-18" value="" style="endArrow=none;html=1;edgeStyle=orthogonalEdgeStyle;rounded=0;entryX=0.5;entryY=0;entryDx=0;entryDy=0;exitX=0.515;exitY=0.993;exitDx=0;exitDy=0;exitPerimeter=0;" edge="1" parent="mmUrm8-1lzrFlqwKut57-1" source="816IRJLJWsRyu6MtDczG-7" target="mmUrm8-1lzrFlqwKut57-6">&#xa;          <mxGeometry relative="1" as="geometry">&#xa;            <mxPoint x="418.9200000000001" y="710.0000000000001" as="sourcePoint"/>&#xa;            <mxPoint x="499" y="750.1" as="targetPoint"/>&#xa;            <Array as="points">&#xa;              <mxPoint x="415" y="640"/>&#xa;              <mxPoint x="415" y="730"/>&#xa;              <mxPoint x="219" y="730"/>&#xa;            </Array>&#xa;          </mxGeometry>&#xa;        </mxCell>&#xa;        <mxCell id="mmUrm8-1lzrFlqwKut57-20" value="child" style="edgeLabel;resizable=0;html=1;align=right;verticalAlign=bottom;" connectable="0" vertex="1" parent="mmUrm8-1lzrFlqwKut57-18">&#xa;          <mxGeometry x="1" relative="1" as="geometry">&#xa;            <mxPoint x="10" y="-20" as="offset"/>&#xa;          </mxGeometry>&#xa;        </mxCell>&#xa;        <mxCell id="mmUrm8-1lzrFlqwKut57-21" value="" style="endArrow=none;html=1;edgeStyle=orthogonalEdgeStyle;rounded=0;entryX=0.5;entryY=0;entryDx=0;entryDy=0;" edge="1" parent="mmUrm8-1lzrFlqwKut57-1">&#xa;          <mxGeometry relative="1" as="geometry">&#xa;            <mxPoint x="411" y="730" as="sourcePoint"/>&#xa;            <mxPoint x="622" y="790.0999999999999" as="targetPoint"/>&#xa;          </mxGeometry>&#xa;        </mxCell>&#xa;        <mxCell id="mmUrm8-1lzrFlqwKut57-22" value="child" style="edgeLabel;resizable=0;html=1;align=right;verticalAlign=bottom;" connectable="0" vertex="1" parent="mmUrm8-1lzrFlqwKut57-21">&#xa;          <mxGeometry x="1" relative="1" as="geometry">&#xa;            <mxPoint x="10" y="-20" as="offset"/>&#xa;          </mxGeometry>&#xa;        </mxCell>&#xa;        <mxCell id="mmUrm8-1lzrFlqwKut57-23" value="" style="endArrow=none;html=1;edgeStyle=orthogonalEdgeStyle;rounded=0;" edge="1" parent="mmUrm8-1lzrFlqwKut57-1">&#xa;          <mxGeometry relative="1" as="geometry">&#xa;            <mxPoint x="414" y="730" as="sourcePoint"/>&#xa;            <mxPoint x="414" y="950" as="targetPoint"/>&#xa;          </mxGeometry>&#xa;        </mxCell>&#xa;        <mxCell id="mmUrm8-1lzrFlqwKut57-24" value="parent" style="edgeLabel;resizable=0;html=1;align=left;verticalAlign=bottom;" connectable="0" vertex="1" parent="mmUrm8-1lzrFlqwKut57-23">&#xa;          <mxGeometry x="-1" relative="1" as="geometry">&#xa;            <mxPoint x="-18" y="-40" as="offset"/>&#xa;          </mxGeometry>&#xa;        </mxCell>&#xa;        <mxCell id="mmUrm8-1lzrFlqwKut57-25" value="child" style="edgeLabel;resizable=0;html=1;align=right;verticalAlign=bottom;" connectable="0" vertex="1" parent="mmUrm8-1lzrFlqwKut57-23">&#xa;          <mxGeometry x="1" relative="1" as="geometry">&#xa;            <mxPoint x="10" y="-10" as="offset"/>&#xa;          </mxGeometry>&#xa;        </mxCell>&#xa;        <mxCell id="mmUrm8-1lzrFlqwKut57-26" value="&lt;h1 style=&quot;text-align: justify;&quot;&gt;Exercício 5&lt;/h1&gt;&lt;p style=&quot;text-align: justify;&quot;&gt;&lt;span style=&quot;white-space: pre;&quot;&gt;&#9;&lt;/span&gt;Modelar um sistema de impressão, em que uma impressora tem uma fila de&amp;nbsp;&lt;span style=&quot;background-color: initial;&quot;&gt;arquivos para imprimir. A qualquer momento, é possível pedir que a impressora&amp;nbsp;&lt;/span&gt;&lt;span style=&quot;background-color: initial;&quot;&gt;imprima todos os arquivos da fila.&amp;nbsp;&lt;/span&gt;&lt;/p&gt;&lt;p style=&quot;text-align: justify;&quot;&gt;&lt;span style=&quot;background-color: initial;&quot;&gt;&lt;span style=&quot;white-space: pre;&quot;&gt;&#9;&lt;/span&gt;Considerar que essa impressora pode imprimir&amp;nbsp;&lt;/span&gt;&lt;span style=&quot;background-color: initial;&quot;&gt;fotos, documentos de Word e PDF.&lt;/span&gt;&lt;/p&gt;" style="text;html=1;strokeColor=none;fillColor=none;spacing=5;spacingTop=-20;whiteSpace=wrap;overflow=hidden;rounded=0;align=left;" vertex="1" parent="mmUrm8-1lzrFlqwKut57-1">&#xa;          <mxGeometry x="30" y="40" width="190" height="230" as="geometry"/>&#xa;        </mxCell>&#xa;        <mxCell id="816IRJLJWsRyu6MtDczG-4" value="ARQUIVOS (PARENT)" style="swimlane;fontStyle=1;align=center;verticalAlign=top;childLayout=stackLayout;horizontal=1;startSize=26;horizontalStack=0;resizeParent=1;resizeParentMax=0;resizeLast=0;collapsible=1;marginBottom=0;whiteSpace=wrap;html=1;" vertex="1" parent="mmUrm8-1lzrFlqwKut57-1">&#xa;          <mxGeometry x="275" y="520" width="280" height="120" as="geometry"/>&#xa;        </mxCell>&#xa;        <mxCell id="816IRJLJWsRyu6MtDczG-5" value="- nomeArquivo: string" style="text;strokeColor=none;fillColor=none;align=left;verticalAlign=top;spacingLeft=4;spacingRight=4;overflow=hidden;rotatable=0;points=[[0,0.5],[1,0.5]];portConstraint=eastwest;whiteSpace=wrap;html=1;" vertex="1" parent="816IRJLJWsRyu6MtDczG-4">&#xa;          <mxGeometry y="26" width="280" height="26" as="geometry"/>&#xa;        </mxCell>&#xa;        <mxCell id="816IRJLJWsRyu6MtDczG-6" value="" style="line;strokeWidth=1;fillColor=none;align=left;verticalAlign=middle;spacingTop=-1;spacingLeft=3;spacingRight=3;rotatable=0;labelPosition=right;points=[];portConstraint=eastwest;strokeColor=inherit;" vertex="1" parent="816IRJLJWsRyu6MtDczG-4">&#xa;          <mxGeometry y="52" width="280" height="8" as="geometry"/>&#xa;        </mxCell>&#xa;        <mxCell id="816IRJLJWsRyu6MtDczG-7" value="+ pegaArquivo() : string&lt;br&gt;&lt;br&gt;+ imprimirArquivo(imprimirFilaArquivos)" style="text;strokeColor=none;fillColor=none;align=left;verticalAlign=top;spacingLeft=4;spacingRight=4;overflow=hidden;rotatable=0;points=[[0,0.5],[1,0.5]];portConstraint=eastwest;whiteSpace=wrap;html=1;" vertex="1" parent="816IRJLJWsRyu6MtDczG-4">&#xa;          <mxGeometry y="60" width="280" height="60" as="geometry"/>&#xa;        </mxCell>&#xa;        <mxCell id="816IRJLJWsRyu6MtDczG-10" value="ArquivoWord (child)" style="swimlane;fontStyle=1;align=center;verticalAlign=top;childLayout=stackLayout;horizontal=1;startSize=26;horizontalStack=0;resizeParent=1;resizeParentMax=0;resizeLast=0;collapsible=1;marginBottom=0;whiteSpace=wrap;html=1;" vertex="1" parent="mmUrm8-1lzrFlqwKut57-1">&#xa;          <mxGeometry x="469" y="790.1" width="280" height="86" as="geometry"/>&#xa;        </mxCell>&#xa;        <mxCell id="816IRJLJWsRyu6MtDczG-11" value="- numeroPaginas : int" style="text;strokeColor=none;fillColor=none;align=left;verticalAlign=top;spacingLeft=4;spacingRight=4;overflow=hidden;rotatable=0;points=[[0,0.5],[1,0.5]];portConstraint=eastwest;whiteSpace=wrap;html=1;" vertex="1" parent="816IRJLJWsRyu6MtDczG-10">&#xa;          <mxGeometry y="26" width="280" height="26" as="geometry"/>&#xa;        </mxCell>&#xa;        <mxCell id="816IRJLJWsRyu6MtDczG-12" value="" style="line;strokeWidth=1;fillColor=none;align=left;verticalAlign=middle;spacingTop=-1;spacingLeft=3;spacingRight=3;rotatable=0;labelPosition=right;points=[];portConstraint=eastwest;strokeColor=inherit;" vertex="1" parent="816IRJLJWsRyu6MtDczG-10">&#xa;          <mxGeometry y="52" width="280" height="8" as="geometry"/>&#xa;        </mxCell>&#xa;        <mxCell id="816IRJLJWsRyu6MtDczG-13" value="+ imprimirArquivo()" style="text;strokeColor=none;fillColor=none;align=left;verticalAlign=top;spacingLeft=4;spacingRight=4;overflow=hidden;rotatable=0;points=[[0,0.5],[1,0.5]];portConstraint=eastwest;whiteSpace=wrap;html=1;" vertex="1" parent="816IRJLJWsRyu6MtDczG-10">&#xa;          <mxGeometry y="60" width="280" height="26" as="geometry"/>&#xa;        </mxCell>&#xa;        <mxCell id="816IRJLJWsRyu6MtDczG-14" value="ArquivoPDF (child)" style="swimlane;fontStyle=1;align=center;verticalAlign=top;childLayout=stackLayout;horizontal=1;startSize=26;horizontalStack=0;resizeParent=1;resizeParentMax=0;resizeLast=0;collapsible=1;marginBottom=0;whiteSpace=wrap;html=1;" vertex="1" parent="mmUrm8-1lzrFlqwKut57-1">&#xa;          <mxGeometry x="279" y="950" width="280" height="86" as="geometry"/>&#xa;        </mxCell>&#xa;        <mxCell id="816IRJLJWsRyu6MtDczG-15" value="- tamanhoArquivo : double" style="text;strokeColor=none;fillColor=none;align=left;verticalAlign=top;spacingLeft=4;spacingRight=4;overflow=hidden;rotatable=0;points=[[0,0.5],[1,0.5]];portConstraint=eastwest;whiteSpace=wrap;html=1;" vertex="1" parent="816IRJLJWsRyu6MtDczG-14">&#xa;          <mxGeometry y="26" width="280" height="26" as="geometry"/>&#xa;        </mxCell>&#xa;        <mxCell id="816IRJLJWsRyu6MtDczG-16" value="" style="line;strokeWidth=1;fillColor=none;align=left;verticalAlign=middle;spacingTop=-1;spacingLeft=3;spacingRight=3;rotatable=0;labelPosition=right;points=[];portConstraint=eastwest;strokeColor=inherit;" vertex="1" parent="816IRJLJWsRyu6MtDczG-14">&#xa;          <mxGeometry y="52" width="280" height="8" as="geometry"/>&#xa;        </mxCell>&#xa;        <mxCell id="816IRJLJWsRyu6MtDczG-17" value="+ imprimirArquivo()" style="text;strokeColor=none;fillColor=none;align=left;verticalAlign=top;spacingLeft=4;spacingRight=4;overflow=hidden;rotatable=0;points=[[0,0.5],[1,0.5]];portConstraint=eastwest;whiteSpace=wrap;html=1;" vertex="1" parent="816IRJLJWsRyu6MtDczG-14">&#xa;          <mxGeometry y="60" width="280" height="26" as="geometry"/>&#xa;        </mxCell>&#xa;        <mxCell id="816IRJLJWsRyu6MtDczG-21" value="" style="endArrow=none;html=1;rounded=0;" edge="1" parent="mmUrm8-1lzrFlqwKut57-1" target="mmUrm8-1lzrFlqwKut57-5">&#xa;          <mxGeometry width="50" height="50" relative="1" as="geometry">&#xa;            <mxPoint x="414" y="520" as="sourcePoint"/>&#xa;            <mxPoint x="464" y="470" as="targetPoint"/>&#xa;          </mxGeometry>&#xa;        </mxCell>&#xa;        <mxCell id="816IRJLJWsRyu6MtDczG-24" value="&lt;div style=&quot;text-align: justify;&quot;&gt;&lt;span style=&quot;background-color: initial;&quot;&gt;&lt;span style=&quot;white-space: pre;&quot;&gt;&#9;&lt;/span&gt;Aqui temos a classe Impressora com uma fila de arquivos do tipo &amp;lt;Arquivos&amp;gt;, com os métodos para adicionar arquivos na fila de impressão.&lt;/span&gt;&lt;/div&gt;&lt;div style=&quot;text-align: justify;&quot;&gt;&lt;span style=&quot;background-color: initial;&quot;&gt;&lt;span style=&quot;white-space: pre;&quot;&gt;&#9;&lt;/span&gt;A classe Arquivos é uma classe Pai, que representa os arquivos em geral, com o atributo nomeArquivo. Seguindo com as subclasses com seus atributos específicos de cada arquivo, sendo que cada subclasse implementa o método imprimirArquivo, herdado do Pai, para adicionar os arquivos que serão impressos no método imprimirFilaArquivos da classe Impressora.&lt;br&gt;&lt;br&gt;&lt;span style=&quot;white-space: pre;&quot;&gt;&#9;&lt;/span&gt;Esse foi o meu entendimento de uma fila de impressão.&lt;/span&gt;&lt;/div&gt;&lt;div style=&quot;text-align: justify;&quot;&gt;&lt;br&gt;&lt;/div&gt;" style="text;html=1;strokeColor=none;fillColor=none;align=center;verticalAlign=middle;whiteSpace=wrap;rounded=0;" vertex="1" parent="mmUrm8-1lzrFlqwKut57-1">&#xa;          <mxGeometry x="240" y="50" width="570" height="190" as="geometry"/>&#xa;        </mxCell>&#xa;      </root>&#xa;    </mxGraphModel>&#xa;  </diagram></mxfile>